<svg width="1817" height="501" viewBox="0 0 1817 501" fill="none" xmlns="http://www.w3.org/2000/svg">
<path d="M1233.59 379.993C1097.32 379.993 1107.04 329.525 1110.41 267.174C1113.78 204.823 1165.51 155.984 1233.59 155.984C1301.66 155.984 1354.1 205.669 1356.77 267.173C1359.43 328.679 1369.86 379.993 1233.59 379.993Z" fill="#EEEEFF"/>
<path d="M1322.61 365.69C1322.61 424.308 1300.23 471.829 1231.28 471.829C1162.32 471.829 1139.94 424.308 1139.94 365.69C1139.94 307.071 1180.83 259.551 1231.28 259.551C1281.72 259.551 1322.61 307.07 1322.61 365.69Z" fill="#EEEEFF"/>
<path d="M1203.25 462.484H1196.36V498.196H1203.25V462.484Z" fill="#EEEEFF"/>
<path d="M1269.95 462.484H1263.06V498.196H1269.95V462.484Z" fill="#EEEEFF"/>
<path d="M1168.58 269.263C1167.87 273.219 1166.32 277.457 1164.37 280.333C1162.18 283.573 1158.89 283.901 1155.9 283.335C1150.49 282.308 1147.38 274.341 1148.96 265.542C1149.71 261.435 1150.09 258.138 1152.17 255.61C1154.54 252.722 1158.75 250.921 1161.64 251.469C1167.06 252.497 1170.16 260.463 1168.58 269.263Z" fill="black"/>
<path d="M1298.2 269.174C1298.68 273.368 1300.59 277.715 1302.54 280.385C1304.72 283.373 1307.35 283.856 1310.24 283.508C1313.04 283.17 1315.5 281.893 1316.78 278.56C1318.16 274.987 1318.8 270.553 1318.3 266.222C1317.28 257.334 1312.13 251.096 1306.66 251.755C1304.26 252.044 1301.41 253.724 1299.96 256.226C1298.1 259.443 1297.63 264.174 1298.2 269.174Z" fill="black"/>
<path d="M1244.35 261.346C1237.31 257.357 1233.59 251.105 1233.59 251.105C1233.59 251.105 1229.85 257.357 1222.82 261.346C1215.79 265.337 1202.46 267.382 1202.46 272.968C1202.46 278.555 1212.48 276.941 1219.19 279.569C1225.9 282.196 1233.59 288.829 1233.59 288.829C1233.59 288.829 1241.27 282.196 1247.97 279.569C1254.69 276.941 1264.7 278.555 1264.7 272.968C1264.7 267.382 1251.38 265.338 1244.35 261.346Z" fill="black"/>
<path d="M1284.6 494.67C1284.64 496.591 1284.11 498.162 1267.01 498.604C1261.93 498.734 1259.37 498.237 1256.79 498.06C1250.67 497.64 1249.32 496.93 1249.29 495.58C1249.27 494.186 1249 492.662 1255.66 491.936C1258.18 491.662 1262.27 491.766 1266.88 491.647C1271.13 491.538 1273.85 491.954 1275.88 492.028C1283.91 492.321 1284.57 493.185 1284.6 494.67Z" fill="#EEEEFF"/>
<path d="M1219.82 495.056C1219.82 496.52 1219.48 497.764 1211.15 498.291C1208.45 498.461 1204.89 498.566 1200.23 498.566C1196.38 498.566 1192.27 498.686 1189.78 498.566C1180.02 498.097 1180.64 496.602 1180.64 495.056C1180.64 493.118 1181.56 491.547 1200.23 491.547C1205.23 491.547 1208.73 492.087 1211.5 492.29C1219.1 492.842 1219.82 493.637 1219.82 495.056Z" fill="#EEEEFF"/>
<path d="M1233.78 193.462C1233.78 193.462 1235.08 170.915 1239.46 158.98C1243.83 147.044 1255.19 134.298 1252.23 132.541C1249.26 130.783 1236.85 138.786 1232.21 143.667C1227.56 148.548 1223.41 155.803 1219.66 169.234C1215.9 182.666 1216.29 190.368 1216.29 190.368" fill="#EEEEFF"/>
<path d="M1236.66 202.251C1236.66 202.251 1228.47 180.713 1227.5 164.415C1226.54 148.118 1232.14 126.747 1228.41 126.487C1224.68 126.227 1215.94 142.767 1213.5 151.123C1211.07 159.479 1210.17 170.272 1212.43 187.919C1214.67 205.569 1218.49 214.181 1218.49 214.181" fill="#EEEEFF"/>
<path d="M1241.84 184.204C1241.84 184.204 1244.6 171.829 1248.71 163.509C1252.8 155.187 1262.4 147.549 1260.19 145.65C1257.99 143.752 1247.86 147.564 1243.96 150.433C1240.06 153.304 1236.4 158.083 1232.69 167.665C1228.98 177.248 1228.84 183.217 1228.84 183.217" fill="#EEEEFF"/>
<path d="M1162.54 262.793C1164.62 262.793 1166.31 261.066 1166.31 258.936C1166.31 256.806 1164.62 255.078 1162.54 255.078C1160.46 255.078 1158.78 256.806 1158.78 258.936C1158.78 261.066 1160.46 262.793 1162.54 262.793Z" fill="#EEEEFF"/>
<path d="M1310.41 263.144C1312.5 263.144 1314.17 261.417 1314.17 259.287C1314.17 257.156 1312.5 255.43 1310.41 255.43C1308.34 255.43 1306.66 257.156 1306.66 259.287C1306.66 261.417 1308.34 263.144 1310.41 263.144Z" fill="#EEEEFF"/>
<path d="M1265.47 375.88C1265.47 375.88 1302.51 372.494 1328.15 365.733C1353.79 358.971 1378.91 342.212 1385.66 344.869C1390.56 346.792 1386.63 363.748 1364.82 377.445C1349.64 386.974 1340.02 391.217 1310.82 396.975C1281.62 402.734 1264.14 402 1264.14 402" fill="#EEEEFF"/>
<path d="M1283.69 385.299C1283.69 385.299 1310.24 388.918 1329.28 388.319C1348.33 387.721 1368.55 380.014 1372.89 382.976C1376.03 385.119 1370.67 396.393 1353.23 402.481C1341.1 406.716 1333.69 408.141 1312.3 407.459C1290.91 406.777 1278.74 403.432 1278.74 403.432" fill="#EEEEFF"/>
<path d="M1276.44 395.695C1276.44 395.695 1302.36 402.553 1321.34 404.304C1340.33 406.054 1361.3 400.891 1365.26 404.365C1368.13 406.879 1361.49 417.411 1343.47 421.31C1330.93 424.023 1323.41 424.525 1302.25 421.215C1281.1 417.906 1269.41 413.086 1269.41 413.086" fill="#EEEEFF"/>
<path d="M1279.17 402.113C1279.17 402.113 1302.01 413.921 1314.62 417.165C1327.23 420.409 1345.57 417.159 1345.24 426.431C1344.91 435.702 1322.21 433.729 1311.19 430.985C1300.18 428.24 1274.83 416.751 1274.83 416.751" fill="#EEEEFF"/>
<path d="M1268.19 397.832C1268.19 397.832 1287.37 415.181 1298.77 421.591C1310.17 428.001 1328.17 433.75 1329.08 438.617C1323.91 445.464 1302.02 439.586 1292.05 434.074C1282.07 428.561 1260.38 410.869 1260.38 410.869" fill="#EEEEFF"/>
<path d="M1193.77 371.469C1193.77 371.469 1156.73 368.085 1131.09 361.323C1105.44 354.561 1080.34 337.801 1073.57 340.459C1068.69 342.382 1072.6 359.338 1094.43 373.035C1109.61 382.564 1119.22 386.808 1148.42 392.565C1177.61 398.324 1195.1 397.591 1195.1 397.591" fill="#EEEEFF"/>
<path d="M1175.54 380.893C1175.54 380.893 1149 384.512 1129.95 383.913C1110.9 383.314 1090.68 375.608 1086.34 378.57C1083.21 380.713 1088.57 391.987 1106 398.074C1118.13 402.311 1125.54 403.735 1146.93 403.053C1168.32 402.371 1180.49 399.025 1180.49 399.025" fill="#EEEEFF"/>
<path d="M1182.8 391.289C1182.8 391.289 1156.87 398.148 1137.89 399.898C1118.91 401.648 1097.94 396.485 1093.98 399.959C1091.12 402.473 1097.76 413.006 1115.77 416.904C1128.31 419.617 1135.83 420.119 1156.99 416.809C1178.15 413.499 1189.84 408.681 1189.84 408.681" fill="#EEEEFF"/>
<path d="M1180.07 397.707C1180.07 397.707 1157.23 409.515 1144.61 412.759C1132 416.003 1113.66 412.753 1114 422.025C1114.33 431.295 1137.03 429.323 1148.04 426.578C1159.05 423.834 1184.4 412.344 1184.4 412.344" fill="#EEEEFF"/>
<path d="M1191.05 393.426C1191.05 393.426 1171.86 410.776 1160.46 417.185C1149.07 423.595 1131.07 429.344 1130.16 434.211C1135.33 441.058 1157.21 435.18 1167.19 429.668C1177.16 424.155 1198.86 406.462 1198.86 406.462" fill="#EEEEFF"/>
<path d="M331.975 362.082C331.975 403.97 316.393 437.614 285.23 463.017C253.612 487.971 215.22 500.449 170.053 500.449C129.854 500.449 94.3987 488.864 63.6852 465.691C32.9719 442.519 11.7433 410.876 0 370.772L59.6204 346.707C63.6852 360.967 69.3311 373.89 76.5578 385.476C83.7845 397.064 92.1404 407.089 101.626 415.557C111.561 423.577 122.402 430.041 134.145 434.941C145.89 439.398 158.309 441.627 171.408 441.627C199.864 441.627 223.125 434.496 241.191 420.236C259.256 405.53 268.29 386.146 268.29 362.082C268.29 342.028 260.839 324.87 245.934 310.61C231.932 296.796 205.734 283.428 167.344 270.502C128.499 256.69 104.335 247.33 94.8506 242.428C43.3603 216.582 17.6151 178.48 17.6151 128.124C17.6151 92.9185 31.8428 62.8383 60.2977 37.8824C89.2046 12.9266 124.66 0.449219 166.666 0.449219C203.702 0.449219 235.771 9.80755 262.871 28.5242C289.971 46.7955 308.037 69.7462 317.07 97.3742L258.806 121.439C253.387 103.614 242.546 88.9078 226.286 77.321C210.477 65.289 191.056 59.2728 168.02 59.2728C143.631 59.2728 123.079 65.9573 106.369 79.3264C89.6561 91.8049 81.3004 108.07 81.3004 128.124C81.3004 144.612 87.8497 158.872 100.948 170.904C115.402 182.936 146.792 197.197 195.121 213.684C244.352 230.174 279.358 250.448 300.133 274.512C321.362 298.132 331.975 327.321 331.975 362.082ZM579.086 500.449C530.305 500.449 490.107 483.961 458.489 450.985C426.873 418.008 411.064 376.341 411.064 325.984C411.064 276.074 426.421 234.63 457.134 201.653C487.85 168.23 527.143 151.519 575.021 151.519C624.254 151.519 663.323 167.34 692.229 198.979C721.587 230.174 736.267 274.068 736.267 330.664L735.59 337.347H474.749C475.654 369.435 486.494 395.28 507.269 414.887C528.048 434.496 552.889 444.3 581.795 444.3C621.544 444.3 652.707 424.694 675.291 385.476L730.845 412.213C715.94 439.843 695.165 461.459 668.515 477.055C642.319 492.651 612.508 500.449 579.086 500.449ZM479.493 286.546H669.87C668.065 263.819 658.579 245.102 641.416 230.396C624.704 215.245 602.119 207.669 573.666 207.669C550.18 207.669 529.852 214.799 512.69 229.059C495.978 243.32 484.912 262.482 479.493 286.546ZM948.651 495.103C921.553 495.103 898.969 486.859 880.902 470.369C863.286 453.883 854.256 430.931 853.803 401.519V218.364H795.537V162.214H853.803V61.9465H916.131V162.214H997.428V218.364H916.131V381.465C916.131 403.303 920.424 418.23 929.004 426.251C937.588 433.829 947.297 437.614 958.138 437.614C963.11 437.614 967.851 437.17 972.361 436.277C977.332 434.941 981.853 433.382 985.912 431.6L1005.57 486.412C989.3 492.206 970.336 495.103 948.651 495.103ZM1518.41 489.755H1456.08V162.214H1515.7V215.69H1518.41C1524.73 198.311 1537.61 183.605 1557.03 171.572C1576.9 159.095 1596.33 152.856 1615.29 152.856C1633.37 152.856 1648.71 155.53 1661.36 160.877L1642.39 220.369C1634.72 217.25 1622.52 215.69 1605.81 215.69C1582.32 215.69 1561.77 225.048 1544.16 243.765C1527 262.482 1518.41 284.32 1518.41 309.274V489.755ZM1816.7 49.2462C1816.7 61.2782 1812.42 71.5282 1803.83 79.9947C1795.25 88.4628 1784.86 92.6954 1772.66 92.6954C1760.47 92.6954 1750.09 88.4628 1741.5 79.9947C1732.92 71.5282 1728.63 61.2782 1728.63 49.2462C1728.63 37.2141 1732.92 26.964 1741.5 18.4974C1750.09 10.0308 1760.47 5.79685 1772.66 5.79685C1784.86 5.79685 1795.25 10.0308 1803.83 18.4974C1812.42 26.964 1816.7 37.2141 1816.7 49.2462ZM1803.83 162.214V489.755H1741.5V162.214H1803.83Z" fill="#EEEEFF"/>
</svg>
